<svg xmlns="http://www.w3.org/2000/svg" width="28.521" height="25" viewBox="0 0 28.521 25">
  <path id="Path_61" data-name="Path 61" d="M14.285,33.786c6.892,0,12.45,4.408,12.45,9.821s-5.558,9.821-12.45,9.821a15.444,15.444,0,0,1-4.645-.711,1.767,1.767,0,0,0-1.566.242,11.905,11.905,0,0,1-5.731,2.213,16.756,16.756,0,0,0,2.273-3.885l.007-.019a1.787,1.787,0,0,0-.359-1.831,8.541,8.541,0,0,1-2.476-5.83C1.789,38.194,7.4,33.786,14.285,33.786Zm0-1.786C6.4,32,0,37.2,0,43.607A10.229,10.229,0,0,0,2.954,50.65,14.049,14.049,0,0,1,.366,54.737,1.341,1.341,0,0,0,1.339,57,13.722,13.722,0,0,0,9.1,54.419a17.378,17.378,0,0,0,5.184.8c7.891,0,14.235-5.2,14.235-11.607S22.176,32,14.285,32Z" transform="translate(0 -32)"/>
</svg>
