<svg id="Group_6" data-name="Group 6" xmlns="http://www.w3.org/2000/svg" xmlns:xlink="http://www.w3.org/1999/xlink" width="221.154" height="225" viewBox="0 0 221.154 225">
  <defs>
    <clipPath id="clip-path">
      <rect id="Rectangle_3" data-name="Rectangle 3" width="221.154" height="225" fill="none"/>
    </clipPath>
  </defs>
  <circle id="Ellipse_2" data-name="Ellipse 2" cx="12.654" cy="12.654" r="12.654" transform="translate(26.047 71.278)" fill="#7030a0" opacity="0.5"/>
  <g id="Group_4" data-name="Group 4" transform="translate(0)">
    <g id="Group_3" data-name="Group 3" clip-path="url(#clip-path)">
      <path id="Path_35" data-name="Path 35" d="M51.622,85.3a2.885,2.885,0,0,1-2.885-2.885V76.649a2.885,2.885,0,0,1,5.77,0v5.769A2.885,2.885,0,0,1,51.622,85.3" transform="translate(-13.16 -19.918)" fill="#792ba6"/>
      <path id="Path_36" data-name="Path 36" d="M51.622,151.164a2.885,2.885,0,0,1-2.885-2.885V142.51a2.885,2.885,0,0,1,5.77,0v5.769a2.885,2.885,0,0,1-2.885,2.885" transform="translate(-13.16 -37.702)" fill="#792ba6"/>
      <path id="Path_38" data-name="Path 38" d="M28.183,93.968a2.877,2.877,0,0,1-2.04-.845l-3.354-3.354A2.885,2.885,0,0,1,26.87,85.69l3.353,3.353a2.885,2.885,0,0,1-2.04,4.924" transform="translate(-5.926 -22.91)" fill="#792ba6"/>
      <path id="Path_39" data-name="Path 39" d="M76.895,140.045a2.876,2.876,0,0,1-2.04-.845L71.5,135.846a2.885,2.885,0,0,1,4.081-4.078l3.354,3.354a2.885,2.885,0,0,1-2.04,4.924" transform="translate(-19.079 -35.352)" fill="#792ba6"/>
      <path id="Path_40" data-name="Path 40" d="M18.586,116.416H14.74a2.884,2.884,0,1,1,0-5.769h3.846a2.884,2.884,0,1,1,0,5.769" transform="translate(-3.201 -29.878)" fill="#792ba6"/>
      <path id="Path_41" data-name="Path 41" d="M87.081,116.416H83.235a2.884,2.884,0,1,1,0-5.769h3.846a2.884,2.884,0,1,1,0,5.769" transform="translate(-21.697 -29.878)" fill="#792ba6"/>
      <path id="Path_42" data-name="Path 42" d="M24.83,140.045a2.885,2.885,0,0,1-2.04-4.924l3.353-3.354a2.885,2.885,0,0,1,4.081,4.078L26.87,139.2a2.877,2.877,0,0,1-2.04.845" transform="translate(-5.926 -35.352)" fill="#792ba6"/>
      <path id="Path_43" data-name="Path 43" d="M73.541,93.968a2.885,2.885,0,0,1-2.04-4.924l3.353-3.353a2.885,2.885,0,0,1,4.081,4.078l-3.353,3.354a2.877,2.877,0,0,1-2.04.845" transform="translate(-19.079 -22.91)" fill="#792ba6"/>
      <path id="Path_44" data-name="Path 44" d="M198.7,70.247h-5.769V55.824h-37.5v-5.77h40.384a2.885,2.885,0,0,1,2.885,2.885Z" transform="translate(-41.971 -13.516)" fill="#0b0e11"/>
      <path id="Path_45" data-name="Path 45" d="M120.368,70.247H114.6V52.939a2.884,2.884,0,0,1,2.884-2.885h13.461v5.77H120.368Z" transform="translate(-30.945 -13.516)" fill="#0b0e11"/>
      <path id="Path_46" data-name="Path 46" d="M184.04,43.9h-5.769V29.48h-50V43.9H122.5V26.595a2.885,2.885,0,0,1,2.884-2.885h55.769a2.885,2.885,0,0,1,2.885,2.885Z" transform="translate(-33.079 -6.402)" fill="#0b0e11"/>
      <path id="Path_47" data-name="Path 47" d="M164.9,21.154a2.885,2.885,0,0,1-2.885-2.885V2.885a2.885,2.885,0,0,1,5.77,0V18.269a2.885,2.885,0,0,1-2.885,2.885" transform="translate(-43.749)" fill="#0b0e11"/>
      <path id="Path_48" data-name="Path 48" d="M138.809,120.692H133.04V105.628a2.885,2.885,0,0,1,2.884-2.885h7.692v5.769h-4.808Z" transform="translate(-35.924 -27.743)" fill="#0b0e11"/>
      <path id="Path_49" data-name="Path 49" d="M138.809,160.049H133.04v-14.9a2.885,2.885,0,0,1,2.884-2.885h7.692v5.77h-4.808Z" transform="translate(-35.924 -38.414)" fill="#0b0e11"/>
      <path id="Path_50" data-name="Path 50" d="M138.809,197.77H133.04V182.027a2.884,2.884,0,0,1,2.884-2.885h7.692v5.77h-4.808Z" transform="translate(-35.924 -48.373)" fill="#0b0e11"/>
      <path id="Path_51" data-name="Path 51" d="M170.422,120.692h-5.769V105.628a2.885,2.885,0,0,1,2.884-2.885h7.692v5.769h-4.808Z" transform="translate(-44.46 -27.743)" fill="#0b0e11"/>
      <path id="Path_52" data-name="Path 52" d="M170.422,160.049h-5.769v-14.9a2.885,2.885,0,0,1,2.884-2.885h7.692v5.77h-4.808Z" transform="translate(-44.46 -38.414)" fill="#0b0e11"/>
      <path id="Path_53" data-name="Path 53" d="M171.924,289.907h-5.769V263.945H154.616v25.962h-5.769V261.06a2.884,2.884,0,0,1,2.884-2.884h17.308a2.885,2.885,0,0,1,2.885,2.884Z" transform="translate(-40.192 -69.714)" fill="#0b0e11"/>
      <path id="Path_54" data-name="Path 54" d="M25.872,279.2c-12.379,0-23.237-11.488-23.237-24.585a23.112,23.112,0,0,1,10.9-19.59A16.355,16.355,0,0,1,27.663,212.33,20.212,20.212,0,0,1,45.9,200.765c.182,0,.539-.009.964-.018a31.921,31.921,0,0,1,3.358,0l-.605,5.737c-.368-.028-1.886.009-2.615.026-.487.012-.894.021-1.1.021a14.434,14.434,0,0,0-13.6,9.656,2.882,2.882,0,0,1-2.921,1.923c-.346-.025-.566-.042-.789-.042a10.578,10.578,0,0,0-8.759,16.508,2.883,2.883,0,0,1-1.205,4.25A17.337,17.337,0,0,0,8.4,254.612c0,9.848,8.326,18.816,17.468,18.816Z" transform="translate(-0.712 -54.197)" fill="#0b0e11"/>
      <path id="Path_55" data-name="Path 55" d="M70.313,262.568H64.544V180.837a2.885,2.885,0,0,1,1.207-2.348L95.934,156.93l3.354,4.694-28.975,20.7Z" transform="translate(-17.429 -42.375)" fill="#0b0e11"/>
      <path id="Path_56" data-name="Path 56" d="M91.389,252.747H85.62v-7.692h5.769Zm0-15.385H85.62v-7.692h5.769Zm0-15.384H85.62v-7.693h5.769Zm0-15.385H85.62V198.9h5.769Z" transform="translate(-23.12 -53.708)" fill="#0b0e11"/>
      <path id="Path_57" data-name="Path 57" d="M112.464,227.361H106.7V79.284a2.884,2.884,0,0,1,2.884-2.885h78.847a2.884,2.884,0,0,1,2.884,2.885v21.154h-5.769V82.168H112.464Z" transform="translate(-28.81 -20.63)" fill="#0b0e11"/>
      <rect id="Rectangle_2" data-name="Rectangle 2" width="221.154" height="5.769" transform="translate(0 219.231)" fill="#0b0e11"/>
      <path id="Path_59" data-name="Path 59" d="M231.765,274.862a2.886,2.886,0,0,1-1.6-.485l-11.539-7.692a2.883,2.883,0,0,1-1.284-2.4V198.9h5.769v63.841l8.861,5.908,4.6-2.3V255.864l-4.924-4.924a2.883,2.883,0,0,1,0-4.079l4.924-4.924V231.112l-6.538-4.9a2.885,2.885,0,0,1,0-4.616l6.538-4.9v-4.327h5.769v5.769a2.885,2.885,0,0,1-1.154,2.308l-4.615,3.461,4.615,3.461a2.884,2.884,0,0,1,1.154,2.307v13.462a2.885,2.885,0,0,1-.845,2.04l-3.73,3.729,3.73,3.73a2.882,2.882,0,0,1,.845,2.039v13.461a2.883,2.883,0,0,1-1.594,2.581l-7.693,3.846a2.894,2.894,0,0,1-1.29.3" transform="translate(-58.688 -53.708)" fill="#0b0e11"/>
      <path id="Path_70863" data-name="Path 70863" d="M184.428,55.232a15.723,15.723,0,0,0-18,1.992,15.713,15.713,0,0,0-25.392,16.532c2.6,11.176,23.341,24.305,24.227,24.861a2.2,2.2,0,0,0,2.338,0c.885-.556,21.611-13.685,24.212-24.861A15.584,15.584,0,0,0,192.553,69a15.748,15.748,0,0,0-8.125-13.771" transform="translate(28.601 52.089)" fill="#7030a0"/>
      <path id="Path_70864" data-name="Path 70864" d="M77.861,40.408a19.842,19.842,0,0,1,28.4-23.317A17.291,17.291,0,0,0,77.515,4.342,17.292,17.292,0,0,0,49.57,22.535c2.863,12.3,25.688,26.749,26.663,27.362a2.42,2.42,0,0,0,2.573,0c.191-.12,1.23-.778,2.785-1.842a23.229,23.229,0,0,1-3.73-7.647" transform="translate(87.786 86.538)" fill="#7030a0" opacity="0.5"/>
    </g>
  </g>
</svg>
