<svg id="Group_6" data-name="Group 6" xmlns="http://www.w3.org/2000/svg" xmlns:xlink="http://www.w3.org/1999/xlink" width="96.328" height="98.003" viewBox="0 0 96.328 98.003">
  <defs>
    <clipPath id="clip-path">
      <rect id="Rectangle_3" data-name="Rectangle 3" width="96.328" height="98.003" fill="none"/>
    </clipPath>
  </defs>
  <circle id="Ellipse_2" data-name="Ellipse 2" cx="5.512" cy="5.512" r="5.512" transform="translate(11.345 31.047)" fill="#7030a0" opacity="0.5"/>
  <g id="Group_4" data-name="Group 4" transform="translate(0)">
    <g id="Group_3" data-name="Group 3" clip-path="url(#clip-path)">
      <path id="Path_35" data-name="Path 35" d="M49.994,78.79a1.257,1.257,0,0,1-1.257-1.257V75.021a1.257,1.257,0,1,1,2.513,0v2.513a1.257,1.257,0,0,1-1.257,1.257" transform="translate(-33.241 -50.31)" fill="#792ba6"/>
      <path id="Path_36" data-name="Path 36" d="M49.994,144.651a1.257,1.257,0,0,1-1.257-1.257v-2.513a1.257,1.257,0,0,1,2.513,0v2.513a1.257,1.257,0,0,1-1.257,1.257" transform="translate(-33.241 -95.23)" fill="#792ba6"/>
      <path id="Path_38" data-name="Path 38" d="M24.662,88.819a1.253,1.253,0,0,1-.889-.368L22.312,86.99a1.257,1.257,0,0,1,1.778-1.776l1.46,1.461a1.257,1.257,0,0,1-.889,2.145" transform="translate(-14.967 -57.868)" fill="#792ba6"/>
      <path id="Path_39" data-name="Path 39" d="M73.374,134.9a1.253,1.253,0,0,1-.889-.368l-1.461-1.461A1.256,1.256,0,0,1,72.8,131.29l1.461,1.461a1.257,1.257,0,0,1-.889,2.145" transform="translate(-48.191 -89.295)" fill="#792ba6"/>
      <path id="Path_40" data-name="Path 40" d="M14.787,113.16H13.112a1.256,1.256,0,1,1,0-2.513h1.675a1.256,1.256,0,1,1,0,2.513" transform="translate(-8.086 -75.466)" fill="#792ba6"/>
      <path id="Path_41" data-name="Path 41" d="M83.282,113.16H81.607a1.256,1.256,0,1,1,0-2.513h1.675a1.256,1.256,0,1,1,0,2.513" transform="translate(-54.802 -75.466)" fill="#792ba6"/>
      <path id="Path_42" data-name="Path 42" d="M23.2,134.9a1.257,1.257,0,0,1-.889-2.145l1.46-1.461a1.257,1.257,0,0,1,1.778,1.776l-1.461,1.461a1.253,1.253,0,0,1-.889.368" transform="translate(-14.967 -89.295)" fill="#792ba6"/>
      <path id="Path_43" data-name="Path 43" d="M71.912,88.819a1.257,1.257,0,0,1-.889-2.145l1.46-1.461a1.257,1.257,0,0,1,1.778,1.776L72.8,88.451a1.253,1.253,0,0,1-.889.368" transform="translate(-48.19 -57.868)" fill="#792ba6"/>
      <path id="Path_44" data-name="Path 44" d="M174.279,58.849h-2.513V52.567H155.432V50.054h17.59a1.257,1.257,0,0,1,1.257,1.257Z" transform="translate(-106.012 -34.139)" fill="#0b0e11"/>
      <path id="Path_45" data-name="Path 45" d="M117.112,58.849H114.6V51.311a1.256,1.256,0,0,1,1.256-1.257h5.863v2.513h-4.607Z" transform="translate(-78.162 -34.139)" fill="#0b0e11"/>
      <path id="Path_46" data-name="Path 46" d="M149.306,32.505h-2.513V26.223H125.015v6.282H122.5V24.967a1.257,1.257,0,0,1,1.256-1.257H148.05a1.257,1.257,0,0,1,1.257,1.257Z" transform="translate(-83.552 -16.171)" fill="#0b0e11"/>
      <path id="Path_47" data-name="Path 47" d="M163.275,9.214a1.257,1.257,0,0,1-1.257-1.257v-6.7a1.257,1.257,0,0,1,2.513,0v6.7a1.257,1.257,0,0,1-1.257,1.257" transform="translate(-110.503)" fill="#0b0e11"/>
      <path id="Path_48" data-name="Path 48" d="M135.553,110.561H133.04V104a1.257,1.257,0,0,1,1.256-1.257h3.351v2.513h-2.094Z" transform="translate(-90.739 -70.075)" fill="#0b0e11"/>
      <path id="Path_49" data-name="Path 49" d="M135.553,150.008H133.04v-6.492a1.257,1.257,0,0,1,1.256-1.257h3.351v2.513h-2.094Z" transform="translate(-90.739 -97.028)" fill="#0b0e11"/>
      <path id="Path_50" data-name="Path 50" d="M135.553,187.256H133.04V180.4a1.256,1.256,0,0,1,1.256-1.257h3.351v2.513h-2.094Z" transform="translate(-90.739 -122.183)" fill="#0b0e11"/>
      <path id="Path_51" data-name="Path 51" d="M167.166,110.561h-2.513V104a1.257,1.257,0,0,1,1.256-1.257h3.351v2.513h-2.094Z" transform="translate(-112.301 -70.075)" fill="#0b0e11"/>
      <path id="Path_52" data-name="Path 52" d="M167.166,150.008h-2.513v-6.492a1.257,1.257,0,0,1,1.256-1.257h3.351v2.513h-2.094Z" transform="translate(-112.301 -97.028)" fill="#0b0e11"/>
      <path id="Path_53" data-name="Path 53" d="M158.9,272h-2.513V260.689H151.36V272h-2.513V259.432a1.256,1.256,0,0,1,1.256-1.256h7.539a1.257,1.257,0,0,1,1.257,1.256Z" transform="translate(-101.52 -176.088)" fill="#0b0e11"/>
      <path id="Path_54" data-name="Path 54" d="M12.756,234.9c-5.392,0-10.121-5-10.121-10.708a10.067,10.067,0,0,1,4.75-8.533,7.124,7.124,0,0,1,6.152-9.884,8.8,8.8,0,0,1,7.945-5.037c.079,0,.235,0,.42-.008a13.907,13.907,0,0,1,1.463,0l-.264,2.5c-.16-.012-.821,0-1.139.011-.212.005-.389.009-.48.009a6.287,6.287,0,0,0-5.923,4.206,1.255,1.255,0,0,1-1.272.838c-.151-.011-.246-.018-.344-.018a4.607,4.607,0,0,0-3.815,7.19,1.256,1.256,0,0,1-.525,1.851,7.552,7.552,0,0,0-4.455,6.874c0,4.29,3.627,8.2,7.609,8.2Z" transform="translate(-1.797 -136.893)" fill="#0b0e11"/>
      <path id="Path_55" data-name="Path 55" d="M67.057,202.943H64.544v-35.6a1.257,1.257,0,0,1,.526-1.023l13.147-9.39,1.461,2.045-12.621,9.014Z" transform="translate(-44.022 -107.033)" fill="#0b0e11"/>
      <path id="Path_56" data-name="Path 56" d="M88.133,222.354H85.62V219h2.513Zm0-6.7H85.62V212.3h2.513Zm0-6.7H85.62V205.6h2.513Zm0-6.7H85.62V198.9h2.513Z" transform="translate(-58.397 -135.659)" fill="#0b0e11"/>
      <path id="Path_57" data-name="Path 57" d="M109.208,142.153H106.7v-64.5a1.256,1.256,0,0,1,1.256-1.257h34.343a1.256,1.256,0,0,1,1.256,1.257V86.87h-2.513V78.912h-31.83Z" transform="translate(-72.771 -52.108)" fill="#0b0e11"/>
      <rect id="Rectangle_2" data-name="Rectangle 2" width="96.328" height="2.513" transform="translate(0 95.491)" fill="#0b0e11"/>
      <path id="Path_59" data-name="Path 59" d="M223.624,231.987a1.257,1.257,0,0,1-.7-.211l-5.026-3.351a1.256,1.256,0,0,1-.559-1.045V198.9h2.513v27.807l3.86,2.573,2-1v-4.567l-2.145-2.145a1.256,1.256,0,0,1,0-1.777l2.145-2.145V212.93l-2.848-2.136a1.257,1.257,0,0,1,0-2.011l2.848-2.136v-1.885h2.513v2.513a1.256,1.256,0,0,1-.5,1.005l-2.01,1.507,2.01,1.508a1.256,1.256,0,0,1,.5,1.005v5.864a1.257,1.257,0,0,1-.368.888l-1.625,1.624,1.625,1.625a1.255,1.255,0,0,1,.368.888v5.863a1.256,1.256,0,0,1-.694,1.124l-3.351,1.675a1.26,1.26,0,0,1-.562.133" transform="translate(-148.237 -135.659)" fill="#0b0e11"/>
      <path id="Path_70863" data-name="Path 70863" d="M159.515,54.13a6.848,6.848,0,0,0-7.841.868,6.844,6.844,0,0,0-11.06,7.2c1.133,4.868,10.167,10.587,10.553,10.829a.957.957,0,0,0,1.018,0c.386-.242,9.413-5.961,10.546-10.829a6.788,6.788,0,0,0,.324-2.07,6.859,6.859,0,0,0-3.539-6" transform="translate(-66.726 -7.384)" fill="#7030a0"/>
      <path id="Path_70864" data-name="Path 70864" d="M61.431,17.6A8.642,8.642,0,0,1,73.8,7.444,7.531,7.531,0,0,0,61.28,1.891,7.532,7.532,0,0,0,49.108,9.816C50.355,15.174,60.3,21.467,60.722,21.734a1.054,1.054,0,0,0,1.121,0c.083-.052.536-.339,1.213-.8A10.118,10.118,0,0,1,61.431,17.6" transform="translate(10.72 37.694)" fill="#7030a0" opacity="0.5"/>
    </g>
  </g>
</svg>
