<svg id="Group_2" data-name="Group 2" xmlns="http://www.w3.org/2000/svg" xmlns:xlink="http://www.w3.org/1999/xlink" width="91.923" height="98.003" viewBox="0 0 91.923 98.003">
  <defs>
    <clipPath id="clip-path">
      <rect id="Rectangle_1" data-name="Rectangle 1" width="91.923" height="98.003" fill="none"/>
    </clipPath>
  </defs>
  <g id="Group_1" data-name="Group 1" clip-path="url(#clip-path)">
    <path id="Path_1" data-name="Path 1" d="M13.872,193.959a4.941,4.941,0,0,0-5.658.626,4.938,4.938,0,0,0-7.98,5.2c.818,3.513,7.336,7.639,7.614,7.814a.691.691,0,0,0,.735,0c.278-.175,6.792-4.3,7.609-7.814a4.935,4.935,0,0,0-2.32-5.822" transform="translate(0 -160.97)" fill="#7030a0"/>
    <path id="Path_2" data-name="Path 2" d="M161.2,54.2a7.449,7.449,0,0,0-8.529.944,7.444,7.444,0,0,0-12.03,7.832c1.233,5.3,11.058,11.515,11.478,11.779a1.041,1.041,0,0,0,1.108,0c.419-.264,10.238-6.484,11.471-11.779a7.383,7.383,0,0,0,.352-2.252A7.461,7.461,0,0,0,161.2,54.2" transform="translate(-116.799 -44.358)" fill="#7030a0"/>
    <path id="Path_3" data-name="Path 3" d="M399.02,25.872a3.666,3.666,0,0,0-4.2.465,3.664,3.664,0,0,0-5.921,3.855c.606,2.606,5.442,5.667,5.649,5.8a.512.512,0,0,0,.545,0c.206-.13,5.039-3.191,5.645-5.8a3.635,3.635,0,0,0,.173-1.108,3.672,3.672,0,0,0-1.894-3.211" transform="translate(-323.637 -21.161)" fill="#7030a0"/>
    <path id="Path_4" data-name="Path 4" d="M62.543,19.144A9.4,9.4,0,0,1,76,8.1a8.192,8.192,0,0,0-13.62-6.04,8.192,8.192,0,0,0-13.24,8.62C50.5,16.5,61.31,23.35,61.771,23.64a1.147,1.147,0,0,0,1.219,0c.091-.057.583-.369,1.32-.873a11,11,0,0,1-1.767-3.623" transform="translate(-40.589)" fill="#7030a0" opacity="0.5"/>
    <path id="Path_5" data-name="Path 5" d="M477.567,408.4a1.241,1.241,0,1,0-1.235,1.247,1.241,1.241,0,0,0,1.235-1.247" transform="translate(-395.534 -338.983)" fill="#263357"/>
    <path id="Path_6" data-name="Path 6" d="M153.416,322.759a1.306,1.306,0,0,1-1.306-1.306v-13.87a.918.918,0,0,0-1.835,0v13.87a1.306,1.306,0,1,1-2.611,0v-13.87a3.529,3.529,0,0,1,7.058,0v13.87a1.306,1.306,0,0,1-1.306,1.306" transform="translate(-122.938 -253.142)" fill="#263357"/>
    <path id="Path_7" data-name="Path 7" d="M126.866,305.579a1.306,1.306,0,0,1-1.306-1.306V286.948a.917.917,0,1,0-1.835,0v17.325a1.306,1.306,0,1,1-2.611,0V286.948a3.528,3.528,0,1,1,7.057,0v17.325a1.306,1.306,0,0,1-1.306,1.306" transform="translate(-100.835 -235.961)" fill="#263357"/>
    <path id="Path_8" data-name="Path 8" d="M95.866,324.64a1.306,1.306,0,0,1-1.306-1.306V307.582a3.529,3.529,0,0,1,7.058,0v13.87a1.306,1.306,0,0,1-2.611,0v-13.87a.918.918,0,0,0-1.835,0v15.752a1.306,1.306,0,0,1-1.306,1.306" transform="translate(-78.726 -253.141)" fill="#263357"/>
    <path id="Path_9" data-name="Path 9" d="M41.545,417.318H40.339c-.039,0-.078,0-.117-.005a11.25,11.25,0,0,1-6.442-2.795l-1-.891A16.187,16.187,0,0,1,31,411.6a1.3,1.3,0,0,1-.1-.141l-2.484-4.241-3.857-7.084a1.3,1.3,0,0,1,.181-1.5,4.412,4.412,0,0,1,5.315-.939l.368.193a4.413,4.413,0,0,1,1.679,1.55l1.086,1.584a9.734,9.734,0,0,0,1.612,1.816l.024.021a.893.893,0,0,0,1.323-.781v-1.864a1.306,1.306,0,1,1,2.611,0v1.864A3.5,3.5,0,0,1,33.332,405a1.276,1.276,0,0,1-.14-.107l-.106-.092a12.347,12.347,0,0,1-2.046-2.3l-1.114-1.625a1.866,1.866,0,0,0-.713-.674l-.367-.193a1.8,1.8,0,0,0-1.436-.1l3.284,6.033,2.42,4.131a14.7,14.7,0,0,0,1.406,1.612l1,.89a8.623,8.623,0,0,0,4.881,2.137h1.146a1.306,1.306,0,0,1,0,2.611" transform="translate(-20.319 -330.681)" fill="#263357"/>
    <path id="Path_10" data-name="Path 10" d="M180.86,520.191a1.305,1.305,0,0,1-1.3-1.192c-.095-1.082-.186-1.989-.268-2.814a65.037,65.037,0,0,1-.421-7.646,1.306,1.306,0,1,1,2.611,0,62.806,62.806,0,0,0,.408,7.387c.083.834.175,1.751.27,2.845a1.305,1.305,0,0,1-1.186,1.415c-.039,0-.078.005-.115.005" transform="translate(-148.92 -422.299)" fill="#263357"/>
    <path id="Path_11" data-name="Path 11" d="M106.058,520.2c-.038,0-.077,0-.115-.005a1.306,1.306,0,0,1-1.186-1.415c.1-1.092.187-2.008.27-2.841a63,63,0,0,0,.409-7.4,1.306,1.306,0,1,1,2.611,0,65.1,65.1,0,0,1-.421,7.658c-.082.824-.173,1.73-.268,2.81a1.305,1.305,0,0,1-1.3,1.191" transform="translate(-87.211 -422.299)" fill="#263357"/>
    <path id="Path_12" data-name="Path 12" d="M175.625,359.217a1.306,1.306,0,1,1,0-2.611,3.043,3.043,0,0,0,3.04-3.04V330.882a.917.917,0,1,0-1.835,0v10.345a1.306,1.306,0,1,1-2.611,0V330.882a3.529,3.529,0,0,1,7.057,0v22.683a5.658,5.658,0,0,1-5.651,5.651" transform="translate(-145.046 -272.539)" fill="#263357"/>
    <path id="Path_13" data-name="Path 13" d="M112.075,442.33h-.022A1.307,1.307,0,0,1,110.768,441a4.347,4.347,0,0,0-4.022-4.4,1.305,1.305,0,1,1,.191-2.6,6.96,6.96,0,0,1,6.442,7.05,1.306,1.306,0,0,1-1.3,1.284" transform="translate(-87.865 -361.32)" fill="#263357"/>
    <path id="Path_14" data-name="Path 14" d="M126.232,405.84a1.3,1.3,0,0,1-.7-.205c-1.745-1.116-7.068-1.443-9.356-.246a1.306,1.306,0,1,1-1.21-2.314c2.932-1.532,9.31-1.341,11.972.36a1.306,1.306,0,0,1-.7,2.406" transform="translate(-95.13 -334.714)" fill="#263357"/>
    <path id="Path_15" data-name="Path 15" d="M300.929,68.707a1.306,1.306,0,0,1-1.306-1.306V48.722a1.688,1.688,0,0,0-3.377,0V67.4a1.306,1.306,0,0,1-2.611,0V48.722a4.3,4.3,0,0,1,8.6,0V67.4a1.306,1.306,0,0,1-1.306,1.306" transform="translate(-244.467 -36.984)" fill="#263357"/>
    <path id="Path_16" data-name="Path 16" d="M259.186,156.952a1.306,1.306,0,0,1-1.306-1.306v-3.925a1.306,1.306,0,1,1,2.611,0v3.925a1.306,1.306,0,0,1-1.306,1.306" transform="translate(-214.699 -125.229)" fill="#263357"/>
    <path id="Path_17" data-name="Path 17" d="M265.173,45.573a1.306,1.306,0,0,1-1.306-1.306V20.935a1.688,1.688,0,1,0-3.376,0V21.9a1.306,1.306,0,1,1-2.611,0v-.967a4.3,4.3,0,0,1,8.6,0V44.268a1.306,1.306,0,0,1-1.306,1.306" transform="translate(-214.699 -13.85)" fill="#263357"/>
    <path id="Path_18" data-name="Path 18" d="M150.269,196.054h-1.625c-.039,0-.078,0-.117-.005a14.7,14.7,0,0,1-8.414-3.651l-1.343-1.2a21.857,21.857,0,0,1-2.342-2.667,1.313,1.313,0,0,1-.1-.141l-3.346-5.712-5.188-9.528a1.305,1.305,0,0,1,.181-1.5,5.49,5.49,0,0,1,6.613-1.167l.5.26a5.5,5.5,0,0,1,2.088,1.927l1.473,2.148a13.549,13.549,0,0,0,2.245,2.53l.066.058a1.654,1.654,0,0,0,2.5-1.422v-2.511a1.306,1.306,0,1,1,2.611,0v2.511a4.266,4.266,0,0,1-6.614,3.561,1.244,1.244,0,0,1-.143-.11l-.142-.125a16.173,16.173,0,0,1-2.677-3.016l-1.5-2.188a2.937,2.937,0,0,0-1.122-1.052l-.495-.26a2.879,2.879,0,0,0-2.772.054l4.654,8.549,3.282,5.6a19.16,19.16,0,0,0,1.968,2.255l1.342,1.2a12.063,12.063,0,0,0,6.852,2.993h1.565a1.306,1.306,0,1,1,0,2.611" transform="translate(-106.266 -141.411)" fill="#263357"/>
    <path id="Path_19" data-name="Path 19" d="M339.617,362.415a1.306,1.306,0,0,1-1.306-1.306,199.564,199.564,0,0,0-1.33-21.011,197.677,197.677,0,0,1-1.318-20.744,1.306,1.306,0,1,1,2.611,0,195.759,195.759,0,0,0,1.3,20.481,201.614,201.614,0,0,1,1.343,21.273,1.306,1.306,0,0,1-1.306,1.306" transform="translate(-279.457 -264.793)" fill="#263357"/>
    <path id="Path_20" data-name="Path 20" d="M226.837,362.415a1.306,1.306,0,0,1-1.306-1.306,201.659,201.659,0,0,1,1.343-21.273,195.755,195.755,0,0,0,1.3-20.481,1.306,1.306,0,1,1,2.611,0,197.673,197.673,0,0,1-1.318,20.744,199.519,199.519,0,0,0-1.33,21.011,1.306,1.306,0,0,1-1.306,1.306" transform="translate(-187.766 -264.793)" fill="#263357"/>
    <path id="Path_21" data-name="Path 21" d="M330.837,117.805a1.306,1.306,0,1,1,0-2.611,4.552,4.552,0,0,0,4.547-4.547V80.1a1.688,1.688,0,0,0-3.377,0V94.033a1.306,1.306,0,0,1-2.611,0V80.1a4.3,4.3,0,0,1,8.6,0v30.548a7.166,7.166,0,0,1-7.158,7.158" transform="translate(-274.24 -63.108)" fill="#263357"/>
    <path id="Path_22" data-name="Path 22" d="M245.251,229.741h-.024a1.307,1.307,0,0,1-1.283-1.329,6.3,6.3,0,0,0-5.835-6.388,1.305,1.305,0,1,1,.191-2.6,8.918,8.918,0,0,1,8.255,9.038,1.306,1.306,0,0,1-1.3,1.283" transform="translate(-197.232 -182.675)" fill="#263357"/>
    <path id="Path_23" data-name="Path 23" d="M264.32,180.522a1.3,1.3,0,0,1-.7-.205c-2.494-1.594-9.8-2.053-13.053-.351a1.306,1.306,0,0,1-1.21-2.314c3.841-2.007,12.187-1.759,15.67.465a1.306,1.306,0,0,1-.7,2.406" transform="translate(-207.018 -146.768)" fill="#263357"/>
    <path id="Path_24" data-name="Path 24" d="M373.436,168.985a1.306,1.306,0,0,1-1.306-1.306V152.294a1.16,1.16,0,1,0-2.32,0,1.306,1.306,0,1,1-2.611,0,3.771,3.771,0,1,1,7.543,0v15.385a1.306,1.306,0,0,1-1.306,1.306" transform="translate(-305.713 -123.653)" fill="#263357"/>
    <path id="Path_25" data-name="Path 25" d="M402.889,149.93a1.306,1.306,0,0,1-1.306-1.306V129.406a1.16,1.16,0,0,0-2.32,0v19.218a1.305,1.305,0,1,1-2.611,0V129.406a3.771,3.771,0,1,1,7.543,0v19.218a1.306,1.306,0,0,1-1.306,1.306" transform="translate(-330.234 -104.598)" fill="#263357"/>
    <path id="Path_26" data-name="Path 26" d="M432.341,171.072a1.306,1.306,0,0,1-1.306-1.306V152.294a1.16,1.16,0,1,0-2.32,0v15.385a1.306,1.306,0,1,1-2.611,0V152.294a3.771,3.771,0,1,1,7.542,0v17.472a1.305,1.305,0,0,1-1.305,1.306" transform="translate(-354.754 -123.653)" fill="#263357"/>
    <path id="Path_27" data-name="Path 27" d="M431.126,273.872h-1.339a1.306,1.306,0,1,1,0-2.611h1.278a9.712,9.712,0,0,0,5.5-2.406l1.106-.988a16.2,16.2,0,0,0,1.583-1.814l2.712-4.631,3.7-6.8a2.138,2.138,0,0,0-1.861.062l-.408.214a2.155,2.155,0,0,0-.815.752l-1.261,1.843a13.57,13.57,0,0,1-2.245,2.529l-.118.1a1.447,1.447,0,0,1-.141.108,3.744,3.744,0,0,1-5.8-3.125v-2.068a1.306,1.306,0,1,1,2.611,0v2.068a1.132,1.132,0,0,0,1.693.984l.039-.034a10.953,10.953,0,0,0,1.811-2.041l1.234-1.8a4.7,4.7,0,0,1,1.782-1.628l.408-.214a4.749,4.749,0,0,1,5.724,1.011,1.3,1.3,0,0,1,.181,1.5l-4.257,7.818-2.776,4.74a1.233,1.233,0,0,1-.1.142,17.81,17.81,0,0,1-1.958,2.226l-1.105.987a12.337,12.337,0,0,1-7.063,3.065c-.039,0-.079.005-.117.005" transform="translate(-356.734 -209.662)" fill="#263357"/>
    <path id="Path_28" data-name="Path 28" d="M365.811,386.673c-.038,0-.077,0-.115-.005a1.305,1.305,0,0,1-1.187-1.414c.4-4.569.43-8.625.43-13.856a1.306,1.306,0,1,1,2.611,0c0,5.3-.032,9.41-.44,14.083a1.306,1.306,0,0,1-1.3,1.192" transform="translate(-303.469 -308.121)" fill="#263357"/>
    <path id="Path_29" data-name="Path 29" d="M481.021,464.22a1.306,1.306,0,0,1-1.306-1.293c-.061-6.325-.6-11.543-1.125-16.589l-.011-.112c-.17-1.635-.336-3.242-.484-4.864a1.306,1.306,0,0,1,2.6-.237c.147,1.612.312,3.208.48,4.832l.012.112c.53,5.106,1.077,10.385,1.139,16.833a1.306,1.306,0,0,1-1.293,1.318Z" transform="translate(-398.035 -366.273)" fill="#263357"/>
    <path id="Path_30" data-name="Path 30" d="M443.2,409.287a1.306,1.306,0,0,1-1.306-1.293c-.058-6.049-.585-11.128-1.094-16.039a154.428,154.428,0,0,1-1.082-16.759,1.306,1.306,0,0,1,2.611,0,150.245,150.245,0,0,0,1.068,16.489c.516,4.971,1.049,10.112,1.108,16.283a1.306,1.306,0,0,1-1.293,1.318Z" transform="translate(-366.091 -311.284)" fill="#263357"/>
    <path id="Path_31" data-name="Path 31" d="M342.35,346.629a6.383,6.383,0,0,1-6.432-6.156,1.305,1.305,0,1,1,2.611,0,3.837,3.837,0,0,0,3.821,3.545,1.306,1.306,0,1,1,0,2.611" transform="translate(-279.669 -282.374)" fill="#263357"/>
    <path id="Path_32" data-name="Path 32" d="M410.028,301.615a1.305,1.305,0,0,1-1.3-1.284,7.577,7.577,0,0,1,7.013-7.676,1.305,1.305,0,0,1,.191,2.6,4.962,4.962,0,0,0-4.593,5.029,1.306,1.306,0,0,1-1.284,1.327Z" transform="translate(-340.283 -243.647)" fill="#263357"/>
    <path id="Path_33" data-name="Path 33" d="M381.181,260.627a1.3,1.3,0,0,1-.6-.149c-2.568-1.343-7.872-.917-9.789-.246a1.306,1.306,0,1,1-.863-2.465c2.32-.811,8.44-1.391,11.862.4a1.306,1.306,0,0,1-.606,2.463" transform="translate(-307.255 -213.958)" fill="#263357"/>
    <path id="Path_34" data-name="Path 34" d="M289.791,413.376a1.306,1.306,0,0,1-1.306-1.305v-1.958a1.306,1.306,0,0,1,2.611,0v1.958a1.306,1.306,0,0,1-1.306,1.305m0-8.486a1.306,1.306,0,0,1-1.306-1.306v-1.958a1.306,1.306,0,1,1,2.611,0v1.958a1.306,1.306,0,0,1-1.306,1.306m0-8.486a1.306,1.306,0,0,1-1.306-1.306V393.14a1.306,1.306,0,0,1,2.611,0V395.1a1.306,1.306,0,0,1-1.306,1.306m0-8.486a1.306,1.306,0,0,1-1.306-1.306v-1.958a1.306,1.306,0,1,1,2.611,0v1.958a1.306,1.306,0,0,1-1.306,1.306" transform="translate(-240.179 -319.157)" fill="#263357"/>
  </g>
</svg>
