<svg id="Group_2" data-name="Group 2" xmlns="http://www.w3.org/2000/svg" xmlns:xlink="http://www.w3.org/1999/xlink" width="211.04" height="225" viewBox="0 0 211.04 225">
  <defs>
    <clipPath id="clip-path">
      <rect id="Rectangle_1" data-name="Rectangle 1" width="211.04" height="225" fill="none"/>
    </clipPath>
  </defs>
  <g id="Group_1" data-name="Group 1" clip-path="url(#clip-path)">
    <path id="Path_1" data-name="Path 1" d="M31.848,194.754a11.344,11.344,0,0,0-12.99,1.438A11.337,11.337,0,0,0,.536,208.12c1.877,8.064,16.842,17.537,17.481,17.939a1.586,1.586,0,0,0,1.687,0c.639-.4,15.593-9.875,17.47-17.939a11.329,11.329,0,0,0-5.327-13.366" transform="translate(0 -119.017)" fill="#7030a0"/>
    <path id="Path_2" data-name="Path 2" d="M188.3,55.4a17.1,17.1,0,0,0-19.581,2.167A17.091,17.091,0,0,0,141.1,75.552c2.83,12.157,25.388,26.437,26.352,27.042a2.39,2.39,0,0,0,2.543,0c.963-.605,23.506-14.885,26.336-27.042a16.95,16.95,0,0,0,.808-5.17A17.129,17.129,0,0,0,188.3,55.4" transform="translate(-86.358 -32.797)" fill="#7030a0"/>
    <path id="Path_3" data-name="Path 3" d="M412.356,26.462a8.418,8.418,0,0,0-9.637,1.066,8.411,8.411,0,0,0-13.593,8.85c1.392,5.983,12.495,13.011,12.969,13.309a1.176,1.176,0,0,0,1.252,0c.474-.3,11.568-7.326,12.961-13.309a8.345,8.345,0,0,0,.4-2.545,8.43,8.43,0,0,0-4.349-7.372" transform="translate(-239.289 -15.646)" fill="#7030a0"/>
    <path id="Path_4" data-name="Path 4" d="M80.414,43.952A21.582,21.582,0,0,1,111.306,18.59,18.807,18.807,0,0,0,80.037,4.722a18.809,18.809,0,0,0-30.4,19.789c3.114,13.379,27.941,29.1,29,29.761a2.632,2.632,0,0,0,2.8,0c.208-.13,1.338-.847,3.03-2a25.266,25.266,0,0,1-4.057-8.318" transform="translate(-30.01)" fill="#7030a0" opacity="0.5"/>
    <path id="Path_5" data-name="Path 5" d="M480.783,410a2.848,2.848,0,1,0-2.835,2.863A2.848,2.848,0,0,0,480.783,410" transform="translate(-292.448 -250.635)" fill="#263357"/>
    <path id="Path_6" data-name="Path 6" d="M160.87,347a3,3,0,0,1-3-3V312.155a2.107,2.107,0,0,0-4.214,0V344a3,3,0,1,1-5.995,0V312.155a8.1,8.1,0,0,1,16.2,0V344a3,3,0,0,1-3,3" transform="translate(-90.897 -187.167)" fill="#263357"/>
    <path id="Path_7" data-name="Path 7" d="M134.319,334.294a3,3,0,0,1-3-3V291.52a2.106,2.106,0,1,0-4.212,0V331.3a3,3,0,1,1-5.994,0V291.52a8.1,8.1,0,1,1,16.2,0V331.3a3,3,0,0,1-3,3" transform="translate(-74.555 -174.464)" fill="#263357"/>
    <path id="Path_8" data-name="Path 8" d="M97.557,351.315a3,3,0,0,1-3-3V312.155a8.1,8.1,0,0,1,16.2,0V344a3,3,0,0,1-5.995,0V312.155a2.107,2.107,0,0,0-4.213,0v36.163a3,3,0,0,1-3,3" transform="translate(-58.208 -187.166)" fill="#263357"/>
    <path id="Path_9" data-name="Path 9" d="M63.755,443.4H60.986c-.089,0-.178,0-.268-.012a25.828,25.828,0,0,1-14.791-6.416l-2.29-2.045a37.16,37.16,0,0,1-4.088-4.648,2.985,2.985,0,0,1-.22-.325l-5.7-9.737-8.856-16.264a3,3,0,0,1,.414-3.448,10.129,10.129,0,0,1,12.2-2.156l.844.443a10.131,10.131,0,0,1,3.855,3.559l2.494,3.636a22.344,22.344,0,0,0,3.7,4.17l.056.048a2.05,2.05,0,0,0,3.038-1.794v-4.28a3,3,0,1,1,5.995,0v4.28A8.043,8.043,0,0,1,44.9,415.127a2.926,2.926,0,0,1-.322-.246l-.243-.212a28.346,28.346,0,0,1-4.7-5.291l-2.557-3.73a4.283,4.283,0,0,0-1.636-1.547l-.843-.444a4.132,4.132,0,0,0-3.3-.237l7.54,13.851,5.557,9.485a33.765,33.765,0,0,0,3.227,3.7l2.29,2.043a19.8,19.8,0,0,0,11.205,4.906h2.63a3,3,0,0,1,0,5.995" transform="translate(-15.023 -244.497)" fill="#263357"/>
    <path id="Path_10" data-name="Path 10" d="M183.435,536.981a3,3,0,0,1-2.983-2.736c-.218-2.485-.426-4.566-.615-6.46a149.313,149.313,0,0,1-.966-17.554,3,3,0,1,1,5.994,0,144.194,144.194,0,0,0,.937,16.958c.19,1.916.4,4.02.62,6.531a3,3,0,0,1-2.724,3.248c-.089.009-.178.012-.265.012" transform="translate(-110.108 -312.237)" fill="#263357"/>
    <path id="Path_11" data-name="Path 11" d="M107.752,537c-.088,0-.176,0-.265-.012a3,3,0,0,1-2.724-3.248c.22-2.507.429-4.61.62-6.523a144.651,144.651,0,0,0,.938-16.986,3,3,0,1,1,5.994,0,149.449,149.449,0,0,1-.967,17.581c-.189,1.891-.4,3.971-.615,6.452A3,3,0,0,1,107.752,537" transform="translate(-64.482 -312.237)" fill="#263357"/>
    <path id="Path_12" data-name="Path 12" d="M177.446,400.506a3,3,0,1,1,0-5.995,6.987,6.987,0,0,0,6.98-6.98V335.455a2.106,2.106,0,1,0-4.212,0v23.751a3,3,0,0,1-5.995,0V335.455a8.1,8.1,0,0,1,16.2,0v52.076a12.99,12.99,0,0,1-12.975,12.975" transform="translate(-107.244 -201.509)" fill="#263357"/>
    <path id="Path_13" data-name="Path 13" d="M120.547,453.137h-.05a3,3,0,0,1-2.949-3.046,9.979,9.979,0,0,0-9.234-10.112,3,3,0,1,1,.439-5.977,15.978,15.978,0,0,1,14.789,16.186,3,3,0,0,1-3,2.949" transform="translate(-64.965 -267.151)" fill="#263357"/>
    <path id="Path_14" data-name="Path 14" d="M141.741,410.772a2.992,2.992,0,0,1-1.612-.471c-4.005-2.561-16.228-3.312-21.479-.565a3,3,0,1,1-2.778-5.313c6.731-3.517,21.374-3.078,27.486.825a3,3,0,0,1-1.617,5.523" transform="translate(-70.337 -247.479)" fill="#263357"/>
    <path id="Path_15" data-name="Path 15" d="M310.38,100.176a3,3,0,0,1-3-3V54.293a3.876,3.876,0,0,0-7.752,0V97.179a3,3,0,0,1-5.995,0V54.293a9.871,9.871,0,0,1,19.742,0V97.179a3,3,0,0,1-3,3" transform="translate(-180.752 -27.345)" fill="#263357"/>
    <path id="Path_16" data-name="Path 16" d="M260.878,165.422a3,3,0,0,1-3-3v-9.011a3,3,0,1,1,5.995,0v9.011a3,3,0,0,1-3,3" transform="translate(-158.743 -92.591)" fill="#263357"/>
    <path id="Path_17" data-name="Path 17" d="M274.623,83.071a3,3,0,0,1-3-3V26.506a3.875,3.875,0,1,0-7.751,0v2.219a3,3,0,0,1-5.995,0V26.506a9.87,9.87,0,0,1,19.741,0V80.074a3,3,0,0,1-3,3" transform="translate(-158.743 -10.241)" fill="#263357"/>
    <path id="Path_18" data-name="Path 18" d="M179.594,230.008h-3.731c-.089,0-.179,0-.27-.012a33.741,33.741,0,0,1-19.317-8.382l-3.084-2.753a50.184,50.184,0,0,1-5.377-6.122,3.02,3.02,0,0,1-.22-.325L139.915,199.3,128,177.426a3,3,0,0,1,.416-3.45A12.6,12.6,0,0,1,143.6,171.3l1.137.6a12.636,12.636,0,0,1,4.795,4.424l3.382,4.932a31.106,31.106,0,0,0,5.154,5.809l.152.133a3.8,3.8,0,0,0,5.739-3.265v-5.764a3,3,0,1,1,5.995,0v5.764a9.794,9.794,0,0,1-15.185,8.175,2.856,2.856,0,0,1-.329-.252l-.327-.287a37.13,37.13,0,0,1-6.145-6.924l-3.444-5.024a6.742,6.742,0,0,0-2.576-2.415l-1.136-.6a6.609,6.609,0,0,0-6.365.123l10.685,19.628,7.534,12.86a43.99,43.99,0,0,0,4.518,5.177l3.082,2.751A27.7,27.7,0,0,0,176,224.013h3.593a3,3,0,1,1,0,5.995" transform="translate(-78.57 -104.555)" fill="#263357"/>
    <path id="Path_19" data-name="Path 19" d="M344.74,419.905a3,3,0,0,1-3-3c0-18.009-1.552-33.376-3.053-48.237-1.489-14.735-3.027-29.973-3.027-47.624a3,3,0,1,1,5.994,0c0,17.35,1.524,32.434,3,47.021,1.517,15.009,3.084,30.529,3.084,48.841a3,3,0,0,1-3,3" transform="translate(-206.623 -195.781)" fill="#263357"/>
    <path id="Path_20" data-name="Path 20" d="M228.528,419.905a3,3,0,0,1-3-3c0-18.312,1.568-33.832,3.084-48.841,1.472-14.587,3-29.671,3-47.021a3,3,0,1,1,5.994,0c0,17.652-1.538,32.889-3.027,47.624-1.5,14.861-3.053,30.228-3.053,48.237a3,3,0,0,1-3,3" transform="translate(-138.83 -195.781)" fill="#263357"/>
    <path id="Path_21" data-name="Path 21" d="M332.7,172.237a3,3,0,0,1,0-5.995,10.45,10.45,0,0,0,10.44-10.438V85.671a3.876,3.876,0,0,0-7.752,0v31.986a3,3,0,0,1-5.995,0V85.671a9.871,9.871,0,0,1,19.742,0V155.8A16.452,16.452,0,0,1,332.7,172.237" transform="translate(-202.766 -46.661)" fill="#263357"/>
    <path id="Path_22" data-name="Path 22" d="M256.073,243.121h-.054a3,3,0,0,1-2.945-3.05,14.473,14.473,0,0,0-13.4-14.667,3,3,0,1,1,.439-5.977,20.474,20.474,0,0,1,18.953,20.749,3,3,0,0,1-3,2.945" transform="translate(-145.828 -135.065)" fill="#263357"/>
    <path id="Path_23" data-name="Path 23" d="M284.62,186.011a2.989,2.989,0,0,1-1.612-.471c-5.725-3.659-22.495-4.713-29.968-.806a3,3,0,0,1-2.778-5.313c8.818-4.607,27.98-4.038,35.975,1.067a3,3,0,0,1-1.617,5.524" transform="translate(-153.064 -108.516)" fill="#263357"/>
    <path id="Path_24" data-name="Path 24" d="M381.519,195.5a3,3,0,0,1-3-3V157.182a2.664,2.664,0,1,0-5.327,0,3,3,0,1,1-5.995,0,8.659,8.659,0,1,1,17.317,0V192.5a3,3,0,0,1-3,3" transform="translate(-226.036 -91.426)" fill="#263357"/>
    <path id="Path_25" data-name="Path 25" d="M410.971,181.411a3,3,0,0,1-3-3v-44.12a2.664,2.664,0,1,0-5.327,0v44.12a3,3,0,1,1-5.994,0v-44.12a8.658,8.658,0,1,1,17.317,0v44.12a3,3,0,0,1-3,3" transform="translate(-244.166 -77.337)" fill="#263357"/>
    <path id="Path_26" data-name="Path 26" d="M440.423,200.292a3,3,0,0,1-3-3V157.182a2.664,2.664,0,0,0-5.328,0V192.5a3,3,0,1,1-5.995,0V157.182a8.658,8.658,0,1,1,17.316,0v40.113a3,3,0,0,1-3,3" transform="translate(-262.296 -91.426)" fill="#263357"/>
    <path id="Path_27" data-name="Path 27" d="M434.553,302.435h-3.073a3,3,0,1,1,0-5.995h2.934a22.3,22.3,0,0,0,12.63-5.525l2.54-2.267a37.18,37.18,0,0,0,3.634-4.165l6.226-10.631,8.494-15.606a4.909,4.909,0,0,0-4.272.142l-.937.492a4.947,4.947,0,0,0-1.871,1.726l-2.895,4.231a31.155,31.155,0,0,1-5.153,5.806l-.271.237a3.312,3.312,0,0,1-.324.247,8.6,8.6,0,0,1-13.327-7.174V259.2a3,3,0,0,1,5.995,0v4.748a2.6,2.6,0,0,0,3.887,2.258l.089-.078a25.145,25.145,0,0,0,4.158-4.685l2.833-4.138a10.8,10.8,0,0,1,4.091-3.738l.937-.492a10.9,10.9,0,0,1,13.141,2.321,3,3,0,0,1,.414,3.448L464.663,276.8l-6.372,10.883a2.829,2.829,0,0,1-.221.327,40.888,40.888,0,0,1-4.494,5.111l-2.538,2.267a28.324,28.324,0,0,1-16.215,7.037c-.09.007-.18.012-.27.012" transform="translate(-263.76 -155.019)" fill="#263357"/>
    <path id="Path_28" data-name="Path 28" d="M367.5,408.159c-.087,0-.176,0-.263-.012a3,3,0,0,1-2.725-3.247c.918-10.489.988-19.8.988-31.812a3,3,0,1,1,5.994,0c0,12.163-.073,21.6-1.011,32.333a3,3,0,0,1-2.983,2.737" transform="translate(-224.377 -227.817)" fill="#263357"/>
    <path id="Path_29" data-name="Path 29" d="M484.821,495.684a3,3,0,0,1-3-2.968c-.139-14.521-1.382-26.5-2.583-38.086l-.026-.256c-.389-3.753-.771-7.444-1.111-11.167a3,3,0,0,1,5.972-.545c.336,3.7.716,7.366,1.1,11.094l.027.256c1.216,11.722,2.474,23.843,2.616,38.645a3,3,0,0,1-2.969,3.027Z" transform="translate(-294.297 -270.813)" fill="#263357"/>
    <path id="Path_30" data-name="Path 30" d="M447.714,455.155a3,3,0,0,1-3-2.968c-.133-13.888-1.342-25.548-2.512-36.823-1.221-11.777-2.484-23.954-2.484-38.476a3,3,0,0,1,5.995,0c0,14.211,1.191,25.7,2.451,37.857,1.184,11.413,2.408,23.215,2.544,37.384a3,3,0,0,1-2.969,3.027Z" transform="translate(-270.678 -230.155)" fill="#263357"/>
    <path id="Path_31" data-name="Path 31" d="M350.685,356.3c-8,0-14.767-6.472-14.767-14.134a3,3,0,1,1,5.994,0c0,4.259,4.182,8.139,8.773,8.139a3,3,0,1,1,0,5.995" transform="translate(-206.78 -208.78)" fill="#263357"/>
    <path id="Path_32" data-name="Path 32" d="M411.72,313.233a3,3,0,0,1-3-2.947,17.4,17.4,0,0,1,16.1-17.623,3,3,0,0,1,.439,5.977,11.393,11.393,0,0,0-10.545,11.546,3,3,0,0,1-2.948,3.047Z" transform="translate(-251.596 -180.146)" fill="#263357"/>
    <path id="Path_33" data-name="Path 33" d="M396.9,265.34a3,3,0,0,1-1.386-.341c-5.9-3.082-18.074-2.1-22.473-.565a3,3,0,1,1-1.981-5.658c5.327-1.863,19.376-3.195,27.232.91a3,3,0,0,1-1.392,5.654" transform="translate(-227.176 -158.195)" fill="#263357"/>
    <path id="Path_34" data-name="Path 34" d="M291.482,452.288a3,3,0,0,1-3-3v-4.5a3,3,0,0,1,5.995,0v4.5a3,3,0,0,1-3,3m0-19.483a3,3,0,0,1-3-3v-4.5a3,3,0,1,1,5.995,0v4.5a3,3,0,0,1-3,3m0-19.483a3,3,0,0,1-3-3v-4.5a3,3,0,0,1,5.995,0v4.5a3,3,0,0,1-3,3m0-19.483a3,3,0,0,1-3-3v-4.5a3,3,0,1,1,5.995,0v4.5a3,3,0,0,1-3,3" transform="translate(-177.582 -235.977)" fill="#263357"/>
  </g>
</svg>
